<?xml version="1.0" encoding="UTF-8" standalone="no"?><!DOCTYPE svg PUBLIC "-//W3C//DTD SVG 1.1//EN" "http://www.w3.org/Graphics/SVG/1.1/DTD/svg11.dtd"><svg width="100%" height="100%" viewBox="0 0 1080 1080" version="1.1" xmlns="http://www.w3.org/2000/svg" xmlns:xlink="http://www.w3.org/1999/xlink" xml:space="preserve" xmlns:serif="http://www.serif.com/" style="fill-rule:evenodd;clip-rule:evenodd;stroke-linejoin:round;stroke-miterlimit:2;"><g id="Layer-1" serif:id="Layer 1"><g><path d="M493.073,938.447c-59.688,-0.07 -67.669,2.485 -67.775,-8.227c-0.391,-39.602 1.282,-99.98 -1.441,-104.985c-5.302,-9.745 -144.223,22.744 -180.535,-6.588c-40.164,-32.444 -18.088,-115.921 -23.649,-176.614c-2.021,-22.054 -77.395,11.167 -84.687,-28.629c-3.099,-16.915 67.978,-108.462 88.277,-146.026c7.33,-13.565 -32.36,-105.168 39.454,-208.167c86.007,-123.355 256.933,-131.994 354.24,-109.889c212.33,48.235 264.581,223.687 264.877,324.69c0.485,165.469 -106.435,219.276 -121.501,229.535c-12.295,8.372 -35.162,73.864 -9.751,150.28c19.925,59.917 48.705,84.499 36.95,84.999c-23.535,1.002 -23.379,-0.283 -294.459,-0.379Zm278.77,-434.05c-51.671,-4.528 -88.485,-35.303 -123.004,1.801c-16.69,17.94 -20.258,71.782 -46.174,31.995c-5.36,-8.23 -24.719,-20.279 -49.374,-23.298c-13.408,-1.642 -18.027,3.697 -21.745,-9.358c-5.823,-20.444 30.05,-30.08 74.743,-1.509c15.017,9.6 20.446,-52.268 98.856,-44.5c33.194,3.288 65.899,36.019 106.803,-2.499c49.936,-47.024 -48.928,-111.364 -83.894,-55.55c-1.021,1.63 -10.178,16.246 -19.351,14.27c-29.819,-6.426 10.207,-80.938 81.792,-60.742c8.286,2.338 12.954,3.59 10.944,-4.719c-12.523,-51.765 -67.892,-98.267 -70.31,-82.088c-0.473,3.164 1.613,48.159 -63.605,61.119c-23.536,4.677 -39.102,-18.887 -6.958,-27.943c92.227,-25.983 21.709,-110.398 -62.95,-109.127c-30.622,0.459 2.767,42.359 -32.597,78.08c-21.911,22.133 -63.421,3.664 -42.734,-14.139c5.006,-4.309 37.125,0.116 32.932,-44.994c-3.672,-39.504 -113.784,-38.192 -108.872,21.956c1.736,21.262 42.179,27.828 21.952,45.162c-13.292,11.391 -60.062,-15.122 -48.357,-60.982c1.91,-7.484 6.929,-9.724 0.144,-12.078c-11.976,-4.155 -103.129,46.205 -69.058,84.559c6.098,6.865 73.864,27.021 52.069,91.891c-8.953,26.647 -37.12,47.885 -43.504,25.898c-4.731,-16.295 48.54,-55.156 0.206,-78.93c-23.079,-11.352 -24.114,-10.522 -38.576,-31.609c-9.334,-13.61 -35.134,29.388 -39.994,44.025c-19.559,58.902 0.657,135.456 94.67,138.19c14.695,0.427 16.743,3.501 25.93,-7.955c31.634,-39.449 65.033,-15.823 46.059,1.759c-3.395,3.145 -35.69,14.388 -32.877,51.45c1.529,20.15 27.896,42.156 46.363,42.32c98.14,0.873 104.655,-7.563 128.67,22.236c35.691,44.288 37.074,84.66 105.643,79.764c59.152,-4.224 86.077,-53.487 69.835,-52.514c-51.549,3.088 -45.84,-23.723 -72.823,-23.662c-1.094,0.002 -22.997,4.272 -26.549,-10.69c-5.304,-22.344 36.627,-23.891 54.048,-11.536c2.913,2.066 28.759,31.013 67.006,10.382c41.859,-22.579 42.76,-97.2 42.226,-97.711c-3.191,-3.051 -9.64,4.918 -20.272,11.836c-11.016,7.168 -34.244,9.174 -37.311,9.439Z"/><path d="M529.797,451.686c3.96,-19.858 3.415,-19.696 6.329,-28.761c5.284,-16.436 -8.127,-8.038 -11.648,-7.067c-2.746,0.757 -46.824,12.915 -35.512,-2.522c12.167,-16.603 50.885,-22.043 28.9,-33.35c-1.688,-0.868 -68.299,-35.86 0.637,-23.721c10.627,1.871 21.165,9.393 16.937,-6.133c-0.779,-2.86 -15.388,-56.516 4.307,-36.801c14.545,14.559 9.49,18.092 23.152,33.772c4.598,5.277 4.213,-1.002 13.572,-18.24c0.789,-1.452 22.338,-41.139 20.301,-3.815c-0.893,16.366 -4.266,15.527 -5.981,31.773c-0.716,6.781 23.859,-2.923 38.667,-4.927c11.916,-1.613 14.669,5.743 5.061,13.05c-12.998,9.884 -13.686,8.362 -26.863,17.881c-10.309,7.447 27.329,19.423 33.373,28.365c10.612,15.698 -39.988,2.993 -43.356,2.147c-14.677,-3.685 6.88,32.764 4.256,45.131c-4.304,20.291 -29.589,-24.921 -31.222,-27.842c-6.355,-11.364 -14.492,8.32 -26.581,27.787c-7.002,11.275 -14.218,6.669 -14.332,-6.727Z" style="fill:#c68b6b;"/></g></g></svg>